<?xml version="1.0" ?>
<svg style="enable-background:new 0 0 60 60;" version="1.1" viewBox="0 0 60 60" xml:space="preserve" xmlns="http://www.w3.org/2000/svg" xmlns:xlink="http://www.w3.org/1999/xlink">
<path d="M24.7,23.97c0.26-0.48,0.08-1.09-0.4-1.36c-0.49-0.26-1.09-0.09-1.36,0.4L8.24,50.03c-0.44,0.8-0.53,1.73-0.26,2.6  c0.27,0.87,0.87,1.58,1.68,2c0.48,0.25,1.01,0.37,1.52,0.37c1.15,0,2.26-0.59,2.89-1.63l8.44-14.04c1.74,0.88,3.53,1.9,4.49,2.57  l-6.23,4.01c-0.71,0.45-1.18,1.16-1.34,1.98c-0.16,0.82,0.02,1.65,0.51,2.34c0.84,1.19,2.41,1.61,3.74,1.01l11.77-5.34  c1.06-0.48,1.8-1.41,2.05-2.54c0.25-1.13-0.05-2.29-0.82-3.16c-1.83-2.09-4.34-4.09-6.75-5.39l4.66-8.68  c11.18,2.09,15.81-5.02,17.3-8.22c0.58-1.25,0.18-2.74-0.95-3.54c-1.26-0.89-2.98-0.64-3.92,0.58c-1.31,1.69-4.13,4.49-8.21,4.24  c-2.8-0.17-4.51-1.2-6.32-2.29c-2.26-1.36-4.6-2.76-8.93-2.61c-5.8,0.21-10.32,4.61-12.49,7.22c-0.48,0.57-0.7,1.33-0.61,2.07  c0.09,0.75,0.5,1.43,1.1,1.87c1.05,0.76,2.5,0.67,3.45-0.21c1.64-1.52,5.91-4.92,10.02-3.61c0.53,0.17,1.09-0.12,1.26-0.65  c0.17-0.53-0.12-1.09-0.65-1.26c-4.93-1.57-9.63,1.86-11.99,4.05c-0.25,0.24-0.64,0.26-0.92,0.06c-0.17-0.12-0.27-0.3-0.29-0.5  c-0.02-0.2,0.03-0.39,0.16-0.54c1.96-2.35,6-6.32,11.03-6.5c3.75-0.12,5.73,1.06,7.83,2.32c1.94,1.16,3.94,2.37,7.23,2.57  c5,0.31,8.36-3.01,9.92-5.01c0.28-0.36,0.8-0.44,1.18-0.17c0.34,0.24,0.47,0.69,0.29,1.06c-1.32,2.84-5.51,9.21-15.81,6.96  c-0.44-0.09-0.88,0.11-1.09,0.5l-5.5,10.23c-0.13,0.24-0.15,0.53-0.07,0.79c0.09,0.26,0.28,0.47,0.53,0.59  c2.44,1.14,5.14,3.2,7.03,5.37c0.34,0.39,0.48,0.91,0.37,1.42c-0.11,0.51-0.45,0.93-0.92,1.14l-11.77,5.34  c-0.46,0.21-0.99,0.06-1.28-0.35c-0.17-0.23-0.23-0.52-0.17-0.8c0.05-0.28,0.22-0.52,0.46-0.68l7.25-4.68  c0.35-0.22,0.52-0.63,0.44-1.04c-0.08-0.41-0.3-1.49-6.98-4.75c-0.47-0.23-1.03-0.06-1.3,0.38l-8.92,14.83  c-0.37,0.61-1.15,0.84-1.79,0.51c-0.33-0.17-0.57-0.46-0.68-0.81c-0.11-0.35-0.07-0.73,0.11-1.05L24.7,23.97z" fill="white"/>
<path d="M36.81,5c-3.25,0-5.89,2.64-5.89,5.89s2.64,5.89,5.89,5.89s5.89-2.64,5.89-5.89S40.05,5,36.81,5z M36.81,14.77  c-2.14,0-3.89-1.74-3.89-3.89S34.66,7,36.81,7s3.89,1.74,3.89,3.89S38.95,14.77,36.81,14.77z" fill="white"/>
</svg>
